:SAMPLES-PER-SECOND 30
:FULLY-SPECIFIED
:DEGREES
1056
root  -27.0349 38.7051 -4.13025 -1.80495 -47.9888 -1.29807
RightUpLeg  -17.3114 -18.2252 -0.778118
RightLeg  36.7057 -1.27295 -1.28519
RightFoot  -14.474 -0.195918 -3.54939
RightToes  0.000482159 0.542163 -0.142577
Spine  33.7633 -3.66646 11.2889
Spine1  10.052 -0.266764 -1.35261
HEad  -36.8989 41.8691 -40.8228
LeftShoulder1  11.3585 -16.8364 -48.7519
LeftArm  -19.1375 9.29728 -18.8826
LeftForeArm  47.1792 -77.0201 -52.422
LeftHand  -0.25398 0.0180481 5.50724
RightShoulder  4.9701 9.91188 31.0979
RightArm  -14.102 -20.8682 28.8241
RightForeArm  48.2747 78.0601 93.5292
RightHand  0.032526 -10.9291 -2.24246
LeftUpLeg  -19.0612 0.323955 -2.95776
LeftLeg  -5.44694 25.6803 -9.85315
LeftFoot  1.07701 0.888225 -8.2629
LeftToes  1.06246e-005 4.65854e-005 -8.18503e-006
1057
root  -26.3693 39.1294 -4.47342 -2.00381 -42.1344 -0.830917
RightUpLeg  -16.0671 -22.2633 -1.80805
RightLeg  32.7103 -2.42288 -1.92755
RightFoot  -12.1142 -0.0996017 -2.49916
RightToes  0.000482159 0.542163 -0.142577
Spine  32.2972 -3.41661 11.6484
Spine1  8.87 -0.153445 -1.02956
HEad  -34.9434 44.9389 -40.7783
LeftShoulder1  11.3413 -16.7029 -49.0012
LeftArm  -17.3053 9.02607 -19.2385
LeftForeArm  45.1203 -76.6403 -50.2545
LeftHand  -0.25398 0.0180481 5.50724
RightShoulder  4.89353 9.70978 31.085
RightArm  -13.3335 -22.9521 27.5546
RightForeArm  47.4043 77.993 94.4614
RightHand  0.0665274 -10.9715 -2.90692
LeftUpLeg  -18.3197 1.68624 -3.47437
LeftLeg  -1.56183 25.0506 -8.68456
LeftFoot  1.67619 0.736721 -6.53011
LeftToes  1.06246e-005 4.65854e-005 -8.18503e-006
1058
root  -25.7357 39.5307 -4.72643 -2.27493 -36.5187 -0.408966
RightUpLeg  -14.4252 -25.4323 -3.15013
RightLeg  29.0155 -3.94369 -2.61316
RightFoot  -9.37084 -0.038602 -1.43838
RightToes  0.000482159 0.542163 -0.142577
Spine  30.9125 -3.08119 11.795
Spine1  7.60316 0.0242617 -1.05343
HEad  -33.2734 47.8113 -40.6998
LeftShoulder1  11.2018 -16.5467 -48.7746
LeftArm  -15.4549 8.97024 -19.6093
LeftForeArm  43.8415 -76.419 -49.1623
LeftHand  -0.25398 0.0180481 5.50724
RightShoulder  4.88919 9.67466 31.1514
RightArm  -12.5163 -25.3124 26.1602
RightForeArm  48.914 77.8717 97.7191
RightHand  0.0907459 -11.0875 -3.33903
LeftUpLeg  -18.5664 7.80221 -5.15063
LeftLeg  5.6857 16.9737 -5.04355
LeftFoot  0.566796 0.519557 -4.99387
LeftToes  1.06246e-005 4.65854e-005 -8.18503e-006
1059
root  -25.0842 39.8779 -4.87953 -2.73112 -31.0621 0.309906
RightUpLeg  -12.4666 -28.8769 -5.23535
RightLeg  25.5665 -5.23357 -2.99962
RightFoot  -6.84067 -0.0202661 -0.642143
RightToes  0.000482159 0.542163 -0.142577
Spine  29.2752 -2.76154 11.5565
Spine1  7.02856 0.170339 -1.35819
HEad  -32.1743 50.2026 -40.8929
LeftShoulder1  11.0495 -16.4305 -48.3897
LeftArm  -13.8814 9.10976 -19.7134
LeftForeArm  44.5863 -76.6182 -50.3335
LeftHand  -0.25398 0.0180481 5.50724
RightShoulder  4.81894 9.59552 30.8351
RightArm  -11.4632 -27.4578 25.1401
RightForeArm  50.8331 77.6873 101.501
RightHand  0.114508 -11.0673 -3.81721
LeftUpLeg  -18.8722 16.9453 -7.76033
LeftLeg  11.5055 6.68187 -1.24177
LeftFoot  -0.856532 0.290183 -3.11769
LeftToes  1.06246e-005 4.65854e-005 -8.18503e-006
1060
root  -24.3982 40.1329 -4.94104 -2.88286 -25.8148 1.00278
RightUpLeg  -10.4489 -31.3664 -7.87917
RightLeg  22.4402 -7.47251 -2.90553
RightFoot  -4.79418 -0.0278204 -0.0760249
RightToes  0.000482159 0.542163 -0.142577
Spine  27.3124 -2.3567 11.0729
Spine1  6.77189 0.324364 -1.57347
HEad  -31.2093 52.3396 -41.0577
LeftShoulder1  10.9046 -16.2911 -48.0881
LeftArm  -12.553 9.4333 -19.5912
LeftForeArm  47.033 -77.1152 -53.3635
LeftHand  -0.25398 0.0180481 5.50724
RightShoulder  4.67723 9.4206 30.2296
RightArm  -10.1532 -29.382 24.4798
RightForeArm  52.5485 77.4662 104.984
RightHand  0.146401 -10.8438 -4.58774
LeftUpLeg  -18.9198 20.5105 -7.66866
LeftLeg  15.717 3.49321 1.39657
LeftFoot  -1.56062 0.182875 -2.03775
LeftToes  1.06246e-005 4.65854e-005 -8.18503e-006
1061
root  -23.6766 40.2668 -4.92048 -2.48819 -20.9397 1.10948
RightUpLeg  -8.37822 -28.7126 -10.839
RightLeg  20.2635 -14.3638 -2.36506
RightFoot  -2.83148 -0.0768263 0.762276
RightToes  0.000482159 0.542163 -0.142577
Spine  25.2981 -1.91158 10.818
Spine1  6.34872 0.573522 -1.7067
HEad  -30.1301 54.3145 -40.87
LeftShoulder1  10.6757 -16.0018 -47.7728
LeftArm  -11.4802 9.83589 -19.5333
LeftForeArm  50.1034 -77.6223 -56.9317
LeftHand  -0.25398 0.0180481 5.50724
RightShoulder  4.59066 9.32713 29.8122
RightArm  -8.81816 -31.1998 23.8562
RightForeArm  54.7036 77.2011 108.506
RightHand  0.180527 -10.6204 -5.46809
LeftUpLeg  -18.4231 18.5709 -4.4076
LeftLeg  19.0238 5.67574 2.51939
LeftFoot  -1.84461 0.123336 -1.34903
LeftToes  1.06246e-005 4.65854e-005 -8.18503e-006
1062
root  -22.9051 40.2943 -4.83008 -1.84889 -16.4635 0.631378
RightUpLeg  -6.49581 -24.9245 -13.0435
RightLeg  18.6446 -22.0366 -1.89401
RightFoot  -0.822315 -0.218737 2.30275
RightToes  0.000482159 0.542163 -0.142577
Spine  23.3907 -1.54547 10.9076
Spine1  6.0382 0.928973 -2.10241
HEad  -29.402 55.7779 -40.5164
LeftShoulder1  10.3911 -15.6007 -47.4722
LeftArm  -10.8747 10.1985 -19.5478
LeftForeArm  53.7761 -78.091 -60.7424
LeftHand  -0.25398 0.0180481 5.50724
RightShoulder  4.58956 9.36057 29.7083
RightArm  -7.77486 -32.7032 23.3036
RightForeArm  57.0938 76.8866 112.015
RightHand  0.213038 -10.3486 -6.45735
LeftUpLeg  -18.0037 17.8718 -0.826502
LeftLeg  20.6653 6.50302 3.02598
LeftFoot  -2.55891 0.0271182 -0.138952
LeftToes  1.06246e-005 4.65854e-005 -8.18503e-006
1063
root  -22.0595 40.283 -4.68735 -1.30325 -12.0767 0.147247
RightUpLeg  -4.28471 -21.794 -15.0331
RightLeg  16.4944 -29.185 -1.2061
RightFoot  1.05967 -0.435942 4.0804
RightToes  0.000482159 0.542163 -0.142577
Spine  21.5758 -1.31422 10.7787
Spine1  6.12874 1.21268 -2.81509
HEad  -29.3975 56.4349 -40.2267
LeftShoulder1  10.2019 -15.251 -47.4776
LeftArm  -10.7851 10.5209 -19.3439
LeftForeArm  58.2764 -78.5442 -65.1183
LeftHand  -0.25398 0.0180481 5.50724
RightShoulder  4.5823 9.34652 29.6904
RightArm  -7.15801 -33.5683 23.1027
RightForeArm  58.4731 76.6312 114.399
RightHand  0.235328 -9.83009 -7.6559
LeftUpLeg  -17.391 18.9442 2.1985
LeftLeg  19.9648 8.2594 3.62174
LeftFoot  -3.451 -0.0559871 1.0903
LeftToes  1.06246e-005 4.65854e-005 -8.18503e-006
1064
root  -21.1326 40.2737 -4.5036 -0.827133 -7.38924 0.00802612
RightUpLeg  -1.7651 -19.0401 -17.0752
RightLeg  13.563 -36.0365 -0.222124
RightFoot  3.05354 -0.607224 4.98381
RightToes  0.000482159 0.542163 -0.142577
Spine  19.9786 -1.19517 9.90541
Spine1  6.18949 1.20275 -3.31465
HEad  -29.6474 56.3717 -39.7317
LeftShoulder1  10.135 -15.0129 -47.7777
LeftArm  -10.9114 10.818 -19.0366
LeftForeArm  61.787 -78.8325 -68.5062
LeftHand  -0.25398 0.0180481 5.50724
RightShoulder  4.52764 9.19705 29.6798
RightArm  -7.00247 -33.8754 23.259
RightForeArm  58.4827 76.5802 114.789
RightHand  0.239213 -9.40569 -8.44656
LeftUpLeg  -16.8487 22.4552 3.75136
LeftLeg  17.9643 12.7092 4.84382
LeftFoot  -3.72759 -0.0784066 1.45741
LeftToes  1.06246e-005 4.65854e-005 -8.18503e-006
1065
root  -20.111 40.2297 -4.25818 -0.22673 -2.27007 0.132553
RightUpLeg  0.637043 -18.0259 -19.0615
RightLeg  10.9809 -41.1661 0.482095
RightFoot  5.32528 -0.721085 5.161
RightToes  0.000482159 0.542163 -0.142577
Spine  18.561 -1.12893 8.43093
Spine1  5.98384 0.931167 -3.30888
HEad  -29.2954 55.5873 -38.3801
LeftShoulder1  10.0937 -14.8698 -47.956
LeftArm  -10.8799 10.9618 -19.1877
LeftForeArm  62.3885 -78.8715 -68.9307
LeftHand  -0.25398 0.0180481 5.50724
RightShoulder  4.48314 9.0493 29.7462
RightArm  -7.52105 -34.2166 23.5228
RightForeArm  58.416 76.6589 114.167
RightHand  0.241117 -9.64689 -8.10683
LeftUpLeg  -17.2387 28.7301 3.1617
LeftLeg  17.1378 18.6157 6.54245
LeftFoot  -3.56811 -0.0515858 1.08157
LeftToes  1.06246e-005 4.65854e-005 -8.18503e-006
